<?xml version="1.0" standalone="no"?>
<!DOCTYPE svg PUBLIC "-//W3C//DTD SVG 1.1//EN" "http://www.w3.org/Graphics/SVG/1.1/DTD/svg11.dtd" >
<svg xmlns="http://www.w3.org/2000/svg">
<metadata>Generated by IcoMoon</metadata>
<defs>
<font id="HostGator" horiz-adv-x="1024">
<font-face units-per-em="1024" ascent="960" descent="-64" />
<missing-glyph horiz-adv-x="1024" />
<glyph unicode="&#x20;" d="" horiz-adv-x="512" />
<glyph unicode="&#xe600;" d="M532.48 345.6h-532.48l491.52 204.8h532.48z" />
<glyph unicode="&#xe601;" d="M791.893 526.507c-13.653 0-30.72-3.413-44.373-6.827-3.413 17.067-10.24 34.133-17.067 54.613-10.24 37.547-23.893 71.68-30.72 92.16-13.653 54.613-61.44 54.613-61.44 54.613h-58.027c0 0-10.24 0-10.24-10.24 0-13.653 10.24-13.653 10.24-13.653h54.613c3.413 0 27.307 6.827 34.133-23.893 3.413-10.24 6.827-20.48 10.24-20.48h-324.267c-3.413 0-6.827 23.893-10.24 34.133 6.827 0 13.653-3.413 20.48-3.413 47.787 3.413 68.267 6.827 61.44 17.067-13.653 3.413-160.427 0-160.427 0s-13.653-23.893 0-34.133c3.413-3.413 23.893 0 47.787 3.413 3.413-10.24 6.827-30.72 10.24-47.787l-51.2-105.813c-20.48 6.827-40.96 13.653-64.853 13.653-98.987 0-180.907-81.92-180.907-180.907s81.92-180.907 180.907-180.907c85.333 0 160.427 75.093 177.493 143.36h78.507l238.933 249.173c6.827-17.067 10.24-30.72 13.653-44.373-64.853-27.307-105.813-92.16-105.813-163.84 0-98.987 81.92-180.907 180.907-180.907s180.907 81.92 180.907 180.907-81.92 174.080-180.907 174.080zM689.493 618.667c0 0 0-13.653 3.413-17.067l-232.107-245.76c-20.48 54.613-78.507 215.040-92.16 242.347 0 3.413-3.413-17.067-3.413 17.067h324.267zM208.213 198.827c-81.92 0-146.773 64.853-146.773 146.773s68.267 146.773 146.773 146.773c17.067 0 34.133-3.413 51.2-10.24l-85.333-170.667h177.493c-13.653-68.267-71.68-112.64-143.36-112.64zM358.4 345.6h-133.12l61.44 129.707c40.96-27.307 68.267-71.68 68.267-126.293 3.413-3.413 3.413-3.413 3.413-3.413zM303.787 502.613l37.547 75.093c0 0 0 0 0 0 13.653-27.307 68.267-163.84 88.747-232.107h-40.96c0 0 0 3.413 0 3.413 0 64.853-34.133 119.467-85.333 153.6zM791.893 198.827c-81.92 0-146.773 68.267-146.773 146.773 0 58.027 34.133 109.227 85.333 133.12 0-3.413 0-3.413 3.413-6.827 6.827-20.48 47.787-129.707 51.2-136.533 0 0 6.827-10.24 20.48-3.413s10.24 17.067 10.24 17.067c-13.653 34.133-44.373 116.053-47.787 133.12 0 3.413 0 3.413-3.413 6.827 10.24 3.413 20.48 3.413 34.133 3.413 81.92 0 146.773-68.267 146.773-146.773s-71.68-146.773-153.6-146.773z" />
<glyph unicode="&#xe602;" d="M996.693 420.693c0 0 0 20.48 13.653 27.307l6.827 20.48c0 0-88.747 34.133-160.427 37.547-75.093 3.413-197.973 3.413-197.973 3.413l-13.653-6.827c0 0-10.24 10.24-6.827 10.24s23.893 10.24 23.893 10.24-61.44 64.853-85.333 64.853c0 0-119.467 10.24-204.8 0-51.2-6.827-143.36-40.96-197.973-61.44s-153.6-27.307-157.013-34.133c-10.24-13.653 0-61.44 20.48-92.16s27.307-20.48 27.307-20.48h71.68v-17.067c3.413 47.787 40.96 78.507 88.747 78.507 51.2 0 92.16-40.96 92.16-88.747 0-3.413 0-6.827 0-6.827h433.493l3.413-3.413c0 3.413 0 3.413 0 3.413 0 51.2 40.96 105.813 92.16 105.813s88.747-37.547 92.16-71.68v0c0 0 40.96-20.48 61.44 0s20.48 34.133 20.48 34.133l-23.893 6.827zM293.547 342.187c0-35.818-29.036-64.853-64.853-64.853s-64.853 29.036-64.853 64.853c0 35.818 29.036 64.853 64.853 64.853s64.853-29.036 64.853-64.853zM907.947 342.187c0-35.818-29.036-64.853-64.853-64.853s-64.853 29.036-64.853 64.853c0 35.818 29.036 64.853 64.853 64.853s64.853-29.036 64.853-64.853z" />
<glyph unicode="&#xe603;" d="M416.427 598.187l3.413-6.827 10.24 3.413c-3.413 3.413-6.827 3.413-13.653 3.413zM368.64 581.12c0 0 0 0 0 0 3.413 13.653 10.24 23.893 20.48 30.72l-6.827 10.24 13.653 10.24 6.827-10.24c10.24 6.827 23.893 6.827 30.72 3.413 10.24-3.413 20.48-6.827 27.307-17.067l-10.24-6.827 92.16 23.893c-40.96 47.787-112.64 61.44-167.253 27.307-30.72-20.48-51.2-47.787-61.44-81.92l54.613 10.24zM675.84 656.213c0 3.413-3.413 10.24-6.827 13.653-13.653 20.48-40.96 30.72-61.44 17.067-17.067-10.24-23.893-30.72-17.067-51.2l85.333 20.48zM119.467 430.933l-17.067 23.893c-17.067 27.307-3.413 61.44 23.893 78.507l464.213 279.893c30.72 17.067 64.853 10.24 81.92-17.067l78.507-122.88 40.96 10.24-95.573 160.427c-20.48 34.133-61.44 44.373-95.573 23.893l-522.24-317.44c-34.133-20.48-44.373-61.44-23.893-95.573l95.573-157.013-30.72 133.12zM201.387 355.84l-13.653 58.027c-6.827 30.72 13.653 61.44 47.787 68.267l529.067 122.88c34.133 6.827 64.853-10.24 75.093-40.96l27.307-109.227h34.133c3.413 0 6.827 0 10.24 0l-34.133 146.773c-10.24 37.547-47.787 61.44-85.333 51.2l-593.92-136.533c-37.547-10.24-61.44-47.787-51.2-85.333l54.613-256v180.907zM481.28 454.827c6.827 10.24 13.653 17.067 27.307 20.48l-3.413 10.24 17.067 3.413 3.413-10.24c13.653 0 23.893 0 30.72-6.827 6.827-3.413 13.653-10.24 17.067-17.067h75.093c-30.72 47.787-85.333 71.68-143.36 58.027-37.547-6.827-64.853-30.72-81.92-58.027h58.027zM788.48 454.827c-10.24 17.067-27.307 27.307-47.787 20.48-13.653-3.413-20.48-10.24-27.307-20.48h75.093zM907.947 424.107h-607.573c-37.547 0-68.267-30.72-68.267-71.68v-262.827c0-37.547 30.72-68.267 68.267-68.267h607.573c37.547 0 68.267 30.72 68.267 68.267v262.827c3.413 40.96-27.307 71.68-68.267 71.68zM938.667 113.493c0-30.72-27.307-58.027-61.44-58.027h-542.72c-34.133 0-61.44 23.893-61.44 58.027v215.040c0 30.72 27.307 58.027 61.44 58.027h542.72c34.133 0 61.44-23.893 61.44-58.027v-215.040zM430.080 219.307c0-24.507-19.867-44.373-44.373-44.373s-44.373 19.867-44.373 44.373c0 24.507 19.867 44.373 44.373 44.373s44.373-19.867 44.373-44.373zM870.4 219.307c0-24.507-19.867-44.373-44.373-44.373s-44.373 19.867-44.373 44.373c0 24.507 19.867 44.373 44.373 44.373s44.373-19.867 44.373-44.373zM583.68 270.507c0-3.413 0-6.827 3.413-10.24s6.827-6.827 10.24-10.24v40.96c-3.413 0-6.827-3.413-10.24-6.827-3.413-6.827-3.413-10.24-3.413-13.653zM614.4 209.067v-47.787c6.827 0 10.24 3.413 13.653 6.827s6.827 10.24 6.827 17.067c0 6.827 0 10.24-3.413 13.653-3.413 6.827-10.24 10.24-17.067 10.24zM607.573 352.427c-71.68 0-133.12-58.027-133.12-133.12 0-71.68 58.027-133.12 133.12-133.12 71.68 0 133.12 58.027 133.12 133.12-3.413 75.093-61.44 133.12-133.12 133.12zM651.947 154.453c-10.24-10.24-20.48-17.067-37.547-17.067v-23.893h-17.067v20.48c-13.653 0-23.893 6.827-34.133 13.653-10.24 10.24-13.653 20.48-17.067 37.547l30.72 3.413c0-6.827 3.413-10.24 6.827-17.067 3.413-3.413 6.827-6.827 10.24-10.24v51.2c-17.067 3.413-27.307 10.24-34.133 20.48s-10.24 20.48-10.24 34.133c0 13.653 3.413 23.893 13.653 34.133 6.827 10.24 20.48 13.653 34.133 13.653v10.24h17.067v-10.24c13.653 0 23.893-6.827 30.72-13.653s13.653-17.067 13.653-27.307l-30.72-3.413c-3.413 10.24-6.827 17.067-13.653 20.48v-47.787c20.48-6.827 30.72-10.24 37.547-20.48 6.827-6.827 10.24-17.067 10.24-30.72 3.413-13.653-3.413-27.307-10.24-37.547z" />
<glyph unicode="&#xe604;" d="M512 789.333c-273.067 0-494.933-126.293-494.933-283.307 0-85.333 61.44-157.013 163.84-211.627l-105.813-187.733 286.72 126.293c47.787-10.24 98.987-13.653 150.187-13.653 273.067 0 494.933 126.293 494.933 283.307s-221.867 286.72-494.933 286.72zM317.44 461.653c-30.72 0-51.2 23.893-51.2 51.2 0 30.72 23.893 51.2 51.2 51.2 30.72 0 51.2-23.893 51.2-51.2 3.413-27.307-20.48-51.2-51.2-51.2zM515.413 461.653c-30.72 0-51.2 23.893-51.2 51.2 0 30.72 23.893 51.2 51.2 51.2s51.2-23.893 51.2-51.2c0-27.307-23.893-51.2-51.2-51.2zM709.973 461.653c-30.72 0-51.2 23.893-51.2 51.2 0 30.72 23.893 51.2 51.2 51.2s51.2-23.893 51.2-51.2c0-27.307-23.893-51.2-51.2-51.2z" />
<glyph unicode="&#xe605;" d="M849.92 615.253l-95.573 95.573-331.093-331.093-150.187 150.187-98.987-98.987 150.187-146.773 98.987-98.987z" />
<glyph unicode="&#xe606;" d="M395.947 680.107c0 0-47.787-17.067-68.267-10.24 0 0-20.48 37.547-68.267 34.133-51.2 0-81.92-61.44-85.333-78.507 0 0-6.827-17.067-37.547-20.48-27.307-3.413-40.96-20.48-47.787-34.133-6.827-17.067-34.133-68.267-23.893-102.4s23.893-92.16 51.2-98.987c27.307-3.413 44.373 3.413 44.373 3.413s61.44-44.373 64.853-58.027c3.413-17.067 13.653-88.747 37.547-116.053s64.853-51.2 98.987-37.547c34.133 13.653 68.267 20.48 68.267 20.48s61.44-61.44 95.573-64.853c34.133-3.413 235.52 27.307 300.373 61.44s81.92 119.467 85.333 133.12c3.413 13.653 0 44.373 23.893 51.2s20.48 92.16 10.24 116.053c-6.827 23.893-34.133 81.92-81.92 75.093s-61.44 34.133-61.44 34.133 37.547 54.613 3.413 92.16c-30.72 37.547-54.613 37.547-54.613 37.547s-13.653 47.787-78.507 58.027c-64.853 10.24-153.6-23.893-170.667-20.48-13.653 3.413-58.027 0-105.813-75.093z" />
<glyph unicode="&#xe607;" d="M812.373 656.213c0-75.405-134.482-136.533-300.373-136.533s-300.373 61.128-300.373 136.533c0 75.405 134.482 136.533 300.373 136.533s300.373-61.128 300.373-136.533zM812.373 577.707c0 0 0 10.24 0 10.24 0-58.027-133.12-109.227-300.373-109.227-163.84 0-300.373 34.133-300.373 102.4v-71.68c10.24-71.68 139.947-129.707 300.373-129.707s290.133 58.027 300.373 129.707v0 3.413c0 0 0 3.413 0 3.413s0 3.413 0 3.413v58.027zM812.373 441.173c0 0 0 10.24 0 10.24 0-58.027-133.12-109.227-300.373-109.227-163.84 0-300.373 34.133-300.373 102.4v-71.68c10.24-71.68 139.947-129.707 300.373-129.707s290.133 58.027 300.373 129.707v0 3.413c0 0 0 3.413 0 3.413s0 3.413 0 3.413v58.027zM812.373 301.227c0 0 0 10.24 0 10.24 0-58.027-133.12-109.227-300.373-109.227-163.84 0-300.373 34.133-300.373 102.4v-71.68c10.24-71.68 139.947-129.707 300.373-129.707s290.133 58.027 300.373 129.707v0 3.413c0 0 0 3.413 0 3.413s0 3.413 0 3.413v58.027z" />
<glyph unicode="&#xe608;" d="M174.080 806.4l-129.707-201.387 453.973-515.413 457.387 512-129.707 204.8z" />
<glyph unicode="&#xe609;" d="M167.253 683.52c54.613-47.787 139.947-126.293 194.56-177.493l17.067-13.653 6.827-6.827 58.027-51.2c10.24-10.24 20.48-13.653 34.133-20.48 13.653-3.413 23.893-6.827 37.547-6.827 17.067 0 30.72 3.413 44.373 10.24 10.24 3.413 20.48 10.24 27.307 17.067l61.44 54.613 17.067 13.653c54.613 47.787 139.947 129.707 194.56 177.493l78.507 71.68c0 0 3.413 3.413 3.413 3.413-10.24 3.413-23.893 6.827-37.547 6.827h-785.067c-10.24 0-23.893 0-34.133-6.827 0 0 3.413-3.413 3.413-3.413l78.507-68.267zM310.613 430.933l10.24 10.24-10.24 6.827c-54.613 51.2-139.947 129.707-194.56 177.493l-78.507 71.68c-3.413 3.413-6.827 6.827-10.24 10.24-10.24-17.067-17.067-34.133-17.067-54.613v-409.6c0-23.893 6.827-44.373 20.48-61.44 0 0 3.413 3.413 3.413 3.413l78.507 71.68c58.027 47.787 143.36 126.293 197.973 174.080zM662.187 376.32l-13.653 13.653-10.24-10.24c-3.413-3.413-10.24-6.827-13.653-10.24-20.48-13.653-44.373-23.893-68.267-30.72-13.653-3.413-27.307-3.413-40.96-3.413-23.893 0-47.787 3.413-68.267 13.653-20.48 6.827-37.547 17.067-54.613 34.133l-17.067 6.827-17.067-13.653c-54.613-47.787-139.947-129.707-194.56-177.493l-68.267-61.44c6.827-3.413 17.067-3.413 23.893-3.413h781.653c6.827 0 17.067 0 23.893 3.413l-68.267 61.44c-51.2 47.787-139.947 126.293-194.56 177.493zM996.693 707.413c-3.413-3.413-6.827-6.827-10.24-10.24l-78.507-71.68c-54.613-47.787-139.947-129.707-194.56-177.493l-10.24-10.24 10.24-10.24c54.613-47.787 139.947-129.707 194.56-177.493l78.507-71.68c0 0 3.413-3.413 3.413-3.413 13.653 17.067 20.48 40.96 20.48 61.44v416.427c3.413 20.48-3.413 37.547-13.653 54.613z" />
<glyph unicode="&#xe60a;" d="M512 731.307c-157.013 0-283.307-126.293-283.307-283.307s126.293-283.307 283.307-283.307 283.307 126.293 283.307 283.307c0 157.013-126.293 283.307-283.307 283.307zM518.827 260.267h-13.653c-23.893 0-44.373 20.48-44.373 44.373s20.48 44.373 44.373 44.373h13.653c23.893 0 44.373-20.48 44.373-44.373s-20.48-44.373-44.373-44.373zM566.613 550.4l-17.067-143.36c-3.413-17.067-17.067-27.307-30.72-27.307h-13.653c-17.067 0-30.72 10.24-30.72 27.307l-17.067 143.36v44.373c0 23.893 17.067 40.96 40.96 40.96h27.307c23.893 0 40.96-17.067 40.96-40.96v-44.373z" />
<glyph unicode="&#xe60b;" d="M563.2 116.907h-136.533v331.093h-68.267v112.64h68.267v68.267c0 92.16 37.547 150.187 150.187 150.187h92.16v-112.64h-58.027c-44.373 0-44.373-17.067-44.373-44.373v-58.027h102.4l-13.653-116.053h-92.16v-331.093z" />
<glyph unicode="&#xe60c;" d="M443.733 488.96h-27.307v-34.133h27.307c13.653 0 20.48 6.827 20.48 17.067v0c3.413 10.24-6.827 17.067-20.48 17.067zM904.533 448l44.373 61.44-61.44 47.787 23.893 71.68-71.68 27.307 3.413 75.093-75.093 6.827-17.067 78.507-75.093-13.653-37.547 64.853-68.267-34.133-58.027 54.613-54.613-51.2-68.267 34.133-37.547-64.853-78.507 10.24-17.067-71.68-75.093-10.24 3.413-75.093-71.68-30.72 23.893-71.68-58.027-47.787 40.96-61.44-44.373-61.44 61.44-47.787-23.893-71.68 71.68-27.307-3.413-75.093 75.093-6.827 17.067-78.507 75.093 13.653 37.547-64.853 68.267 34.133 54.613-51.2 54.613 51.2 68.267-34.133 37.547 64.853 75.093-13.653 17.067 75.093 75.093 6.827-3.413 75.093 71.68 27.307-17.067 75.093 58.027 47.787-40.96 61.44zM358.4 488.96h-78.507v-23.893h68.267v-34.133h-68.267v-51.2h-40.96v146.773h119.467v-37.547zM464.213 376.32l-30.72 44.373h-17.067v-44.373h-40.96v146.773h68.267c23.893 0 37.547-6.827 47.787-17.067 10.24-6.827 13.653-20.48 13.653-34.133v0c0-23.893-13.653-37.547-30.72-44.373l34.133-51.2h-44.373zM648.533 376.32h-119.467v146.773h119.467v-34.133h-78.507v-23.893h71.68v-30.72h-71.68v-23.893h78.507v-34.133zM788.48 376.32h-119.467v146.773h119.467v-34.133h-78.507v-23.893h71.68v-30.72h-71.68v-23.893h78.507v-34.133z" />
<glyph unicode="&#xe60d;" d="M47.787 174.933h399.36l34.133 27.307-85.333 245.76h-276.48l-105.813-238.933zM549.547 174.933h399.36l37.547 27.307-85.333 245.76h-279.893l-105.813-238.933zM307.2 482.133h399.36l37.547 27.307-85.333 245.76h-279.893l-105.813-238.933z" />
<glyph unicode="&#xe60e;" d="M409.6 471.893c0 47.787 105.813 61.44 105.813 174.080 0 68.267-6.827 105.813-58.027 129.707 0 17.067 92.16 6.827 92.16 37.547-17.067 0-204.8 0-204.8 0s-208.213-6.827-208.213-180.907c0-174.080 180.907-153.6 180.907-153.6s0-27.307 0-44.373c0-17.067 23.893-10.24 27.307-47.787-13.653 0-249.173 6.827-249.173-153.6 0-157.013 211.627-150.187 211.627-150.187s238.933-10.24 238.933 184.32c0 119.467-136.533 157.013-136.533 204.8zM232.107 622.080c-17.067 71.68 6.827 139.947 58.027 153.6s105.813-30.72 126.293-102.4c20.48-71.68-6.827-136.533-54.613-150.187-54.613-17.067-109.227 30.72-129.707 98.987zM337.92 133.973c-85.333-6.827-157.013 40.96-160.427 102.4s61.44 116.053 143.36 122.88c85.333 6.827 157.013-40.96 160.427-102.4s-61.44-116.053-143.36-122.88zM928.427 669.867v-40.96h-139.947v-139.947h-40.96v139.947h-143.36v40.96h143.36v143.36h40.96v-143.36z" />
<glyph unicode="&#xe60f;" d="M512 355.84c-75.093-68.267-146.773-146.773-269.653-146.773-139.947 0-232.107 102.4-232.107 238.933 0 129.707 95.573 238.933 242.347 238.933 105.813 0 187.733-78.507 259.413-146.773 75.093 68.267 146.773 146.773 269.653 146.773 139.947 0 232.107-102.4 232.107-238.933 0-129.707-95.573-238.933-242.347-238.933-105.813 0-191.147 78.507-259.413 146.773zM423.253 448c-44.373 44.373-98.987 109.227-167.253 109.227-58.027 0-105.813-47.787-105.813-109.227 0-64.853 44.373-109.227 102.4-109.227 64.853 0 119.467 58.027 170.667 109.227zM873.813 448c0 64.853-44.373 109.227-102.4 109.227-64.853 0-119.467-58.027-170.667-105.813 44.373-44.373 98.987-109.227 167.253-109.227 58.027-3.413 105.813 47.787 105.813 105.813z" />
<glyph unicode="&#xe610;" d="M757.76 250.027c0 0 27.307 191.147-112.64 331.093-143.36 136.533-354.987 17.067-508.587 204.8 0 0-17.067-453.973 187.733-604.16s419.84-17.067 419.84-17.067 136.533-17.067 143.36 10.24c10.24 58.027-129.707 75.093-129.707 75.093zM672.427 222.72c-61.44 10.24-314.027 143.36-382.293 296.96 0 0 279.893-238.933 409.6-256 0-3.413 34.133-54.613-27.307-40.96z" />
<glyph unicode="&#xe611;" d="M105.813 277.333c6.827-68.267 64.853-116.053 133.12-116.053s122.88 47.787 133.12 116.053h-266.24zM856.747 506.027l-40.96 112.64h51.2c0 0 20.48 34.133 6.827 102.4h-71.68l-34.133 34.133h-174.080v-34.133h126.293c0 0 20.48-201.387 34.133-252.587 0 0-75.093-54.613-102.4-122.88h-136.533c0 0-54.613 0-54.613 136.533h30.72v136.533h-477.867v-136.533h78.507c-30.72-34.133-71.68-68.267-71.68-170.667h686.080c0 0 3.413 102.4 105.813 136.533s174.080-51.2 191.147-34.133-51.2 95.573-146.773 92.16zM989.867 277.333c0-73.52-59.6-133.12-133.12-133.12s-133.12 59.6-133.12 133.12c0 73.52 59.6 133.12 133.12 133.12s133.12-59.6 133.12-133.12z" />
<glyph unicode="&#xe612;" d="M764.587 331.947v-71.68h-204.8v34.133h-30.72v122.88h170.667v92.16h-37.547v20.48h37.547v92.16h-37.547v23.893h37.547v92.16h-354.987v-92.16h37.547v-20.48h-37.547v-92.16h37.547v-20.48h-37.547v-92.16h150.187v-122.88h-34.133v-34.133h-201.387v71.68h-177.493v-174.080h174.080v68.267h201.387v-34.133h102.4v34.133h204.8v-68.267h174.080v174.080h-174.080zM406.187 645.973h232.107v-20.48h-232.107v20.48zM406.187 529.92h232.107v-20.48h-232.107v20.48z" />
<glyph unicode="&#xe613;" d="M863.573 850.773h-365.227c-40.96 0-75.093-34.133-75.093-75.093v-211.627c0-40.96 34.133-75.093 75.093-75.093h3.413v-116.053l133.12 116.053h228.693c40.96 0 75.093 34.133 75.093 75.093v211.627c0 40.96-34.133 75.093-75.093 75.093zM177.493 755.2c0 0 85.333 3.413 98.987 0s37.547-61.44 44.373-98.987c6.827-37.547 13.653-105.813-3.413-116.053-17.067-6.827-68.267-30.72-78.507-34.133-10.24 0-3.413-13.653 0-23.893s153.6-238.933 167.253-249.173c13.653-10.24 23.893-6.827 30.72-6.827s64.853 54.613 81.92 54.613c17.067 0 51.2-23.893 68.267-44.373 20.48-20.48 64.853-75.093 61.44-98.987s-54.613-81.92-58.027-81.92c-3.413 0-61.44-20.48-98.987-13.653-34.133 6.827-136.533 68.267-262.827 259.413s-143.36 310.613-146.773 331.093c0 23.893 54.613 102.4 95.573 122.88z" />
<glyph unicode="&#xe614;" d="M81.92 482.133v10.24c0 0 64.853-58.027 491.52-102.4 0 0 95.573 58.027 184.32 61.44 68.267 0 133.12-47.787 133.12-47.787s47.787 37.547 85.333 71.68v-105.813c0-6.827 0-27.307 23.893-27.307 27.307 0 27.307 17.067 17.067 40.96-6.827 23.893-23.893 112.64-23.893 112.64s6.827 0 6.827 6.827-6.827 10.24-6.827 10.24 23.893 95.573 30.72 119.467c6.827 23.893-17.067 34.133-34.133 34.133s-13.653-27.307-13.653-37.547v-116.053c-34.133 23.893-51.2 3.413-139.947 3.413h3.413v112.64c34.133 10.24 58.027 30.72 58.027 44.373 0 20.48-44.373 30.72-44.373 30.72h-266.24c0 0-34.133-13.653-34.133-27.307 0-10.24 47.787-34.133 81.92-47.787v-112.64h-40.96l-58.027 71.68h-13.653l30.72-68.267c0 0-64.853-37.547-105.813-3.413h-228.693c0 0-3.413 129.707-139.947 129.707v-88.747c-64.853-6.827-78.507-75.093-78.507-75.093h81.92zM662.187 625.493c0 0 34.133-3.413 34.133-3.413v-105.813h-34.133v109.227zM720.213 622.080c10.24 0 6.827 0 40.96 0v-105.813h-68.267v105.813c3.413 0 23.893 0 27.307 0zM798.72 516.267h-34.133v105.813c0 0 34.133 0 34.133 3.413v-109.227zM665.6 287.573c-6.827-10.24-13.653-17.067-13.653-34.133 0-37.547 30.72-64.853 68.267-64.853s68.267 34.133 68.267 71.68c0 17.067-6.827 17.067-17.067 30.72l27.307 17.067c13.653 0 23.893 0 30.72 0 37.547 0 64.853 30.72 61.44 37.547 0 6.827-47.787 54.613-136.533 54.613s-211.627-92.16-211.627-92.16 37.547 0 88.747 0l34.133-20.48zM764.587 311.467h-17.067c-10.24 3.413-17.067 13.653-27.307 13.653-13.653 0-23.893-17.067-34.133-23.893l-17.067 10.24c30.72 0 64.853 0 95.573 0zM689.493 263.68c0 17.067 13.653 30.72 30.72 30.72s30.72-13.653 30.72-30.72c0-17.067-13.653-30.72-30.72-30.72-17.067-3.413-30.72 13.653-30.72 30.72z" />
<glyph unicode="&#xe615;" d="M512 731.307c-157.013 0-283.307-126.293-283.307-283.307s126.293-283.307 283.307-283.307 283.307 126.293 283.307 283.307c0 157.013-126.293 283.307-283.307 283.307zM655.36 407.040h-109.227v-109.227h-75.093v109.227h-109.227v75.093h109.227v109.227h75.093v-109.227h109.227v-75.093z" />
<glyph unicode="&#xe616;" d="M512 731.307c-157.013 0-283.307-126.293-283.307-283.307s126.293-283.307 283.307-283.307 283.307 126.293 283.307 283.307c0 157.013-126.293 283.307-283.307 283.307zM508.587 270.507h-10.24c-23.893 0-40.96 17.067-40.96 40.96s17.067 40.96 40.96 40.96h10.24c23.893 0 40.96-17.067 40.96-40.96s-17.067-40.96-40.96-40.96zM628.053 478.72c-6.827-13.653-20.48-27.307-44.373-44.373-17.067-13.653-23.893-23.893-30.72-30.72-3.413-6.827 0-20.48-10.24-27.307-17.067-17.067-64.853-17.067-81.92 0-6.827 6.827-3.413 34.133 0 44.373s6.827 17.067 13.653 27.307c6.827 6.827 20.48 20.48 44.373 40.96 13.653 10.24 20.48 20.48 20.48 27.307s-3.413 13.653-6.827 20.48c-3.413 3.413-13.653 6.827-23.893 6.827s-20.48-3.413-27.307-10.24c-6.827-6.827-13.653-20.48-27.307-30.72-37.547-17.067-78.507 10.24-61.44 54.613 3.413 10.24 13.653 20.48 20.48 27.307 20.48 20.48 54.613 30.72 95.573 30.72 34.133 0 61.44-6.827 81.92-20.48 27.307-20.48 40.96-44.373 40.96-75.093 6.827-13.653 3.413-27.307-3.413-40.96z" />
<glyph unicode="&#xe617;" d="M136.533 229.547c0 0-143.36-58.027-119.467-266.24 0 0 174.080-20.48 259.413 98.987-102.4-34.133-184.32-27.307-184.32-27.307s-23.893 92.16 44.373 194.56zM1003.52 939.52c0 0-150.187 6.827-327.68-92.16-191.147-109.227-348.16-358.4-348.16-358.4l-170.667-3.413-109.227-126.293 170.667-27.307-37.547-71.68 122.88-153.6 85.333 37.547 20.48-157.013 129.707 102.4 10.24 184.32c0 0 296.96 187.733 385.707 389.12 85.333 191.147 68.267 276.48 68.267 276.48zM699.733 574.293c-40.96 0-71.68 30.72-71.68 71.68s30.72 71.68 71.68 71.68c40.96 0 71.68-30.72 71.68-71.68s-30.72-71.68-71.68-71.68z" />
<glyph unicode="&#xe618;" d="M870.4 901.973h-716.8c-58.027 0-102.4-47.787-102.4-102.4v-68.267c0-58.027 47.787-102.4 102.4-102.4h713.387c58.027 0 102.4 47.787 102.4 102.4v68.267c3.413 54.613-44.373 102.4-98.987 102.4zM180.907 686.933c-40.96 0-75.093 34.133-75.093 75.093s34.133 75.093 75.093 75.093 75.093-34.133 75.093-75.093c0-40.96-34.133-75.093-75.093-75.093zM645.12 727.893c-20.48 0-34.133 17.067-34.133 34.133 0 20.48 17.067 34.133 34.133 34.133 20.48 0 34.133-17.067 34.133-34.133s-13.653-34.133-34.133-34.133zM750.933 727.893c-20.48 0-34.133 17.067-34.133 34.133 0 20.48 17.067 34.133 34.133 34.133 20.48 0 34.133-17.067 34.133-34.133s-17.067-34.133-34.133-34.133zM853.333 727.893c-20.48 0-34.133 17.067-34.133 34.133 0 20.48 17.067 34.133 34.133 34.133 20.48 0 34.133-17.067 34.133-34.133 3.413-17.067-13.653-34.133-34.133-34.133zM870.4 584.533h-716.8c-58.027 0-102.4-47.787-102.4-102.4v-68.267c0-58.027 47.787-102.4 102.4-102.4h713.387c58.027 0 102.4 47.787 102.4 102.4v68.267c3.413 58.027-44.373 102.4-98.987 102.4zM180.907 372.907c-40.96 0-75.093 34.133-75.093 75.093s34.133 75.093 75.093 75.093 75.093-34.133 75.093-75.093-34.133-75.093-75.093-75.093zM645.12 413.867c-20.48 0-34.133 17.067-34.133 34.133 0 20.48 17.067 34.133 34.133 34.133 20.48 0 34.133-17.067 34.133-34.133 0-20.48-13.653-34.133-34.133-34.133zM750.933 413.867c-20.48 0-34.133 17.067-34.133 34.133 0 20.48 17.067 34.133 34.133 34.133 20.48 0 34.133-17.067 34.133-34.133 0-20.48-17.067-34.133-34.133-34.133zM853.333 413.867c-20.48 0-34.133 17.067-34.133 34.133 0 20.48 17.067 34.133 34.133 34.133 20.48 0 34.133-17.067 34.133-34.133 3.413-20.48-13.653-34.133-34.133-34.133zM870.4 270.507h-716.8c-58.027 0-102.4-47.787-102.4-102.4v-68.267c0-58.027 47.787-102.4 102.4-102.4h713.387c58.027 0 102.4 47.787 102.4 102.4v68.267c3.413 54.613-44.373 102.4-98.987 102.4zM180.907 58.88c-40.96 0-75.093 34.133-75.093 75.093s34.133 75.093 75.093 75.093 75.093-34.133 75.093-75.093-34.133-75.093-75.093-75.093zM645.12 96.427c-20.48 0-34.133 17.067-34.133 34.133s17.067 34.133 34.133 34.133c20.48 0 34.133-17.067 34.133-34.133s-13.653-34.133-34.133-34.133zM750.933 96.427c-20.48 0-34.133 17.067-34.133 34.133s17.067 34.133 34.133 34.133c20.48 0 34.133-17.067 34.133-34.133s-17.067-34.133-34.133-34.133zM853.333 96.427c-20.48 0-34.133 17.067-34.133 34.133s17.067 34.133 34.133 34.133c20.48 0 34.133-17.067 34.133-34.133s-13.653-34.133-34.133-34.133z" />
<glyph unicode="&#xe619;" d="M525.653 574.293c0 23.893-116.053 44.373-249.173 44.373s-242.347-17.067-245.76-44.373v-68.267c6.827-27.307 119.467-40.96 249.173-40.96 133.12 0 245.76 20.48 245.76 47.787 0-3.413 0 61.44 0 61.44zM1003.52 727.893c0 23.893-122.88 44.373-259.413 44.373-133.12 0-245.76-17.067-249.173-44.373l-3.413-68.267c6.827-27.307 126.293-40.96 256-40.96 133.12 0 252.587 20.48 252.587 47.787 3.413-3.413 3.413 61.44 3.413 61.44zM976.213 618.667c-30.72-17.067-126.293-30.72-235.52-30.72-75.093 0-126.293 3.413-170.667 13.653 6.827-6.827 23.893-13.653 23.893-23.893s0-37.547 0-71.68c34.133-6.827 102.4-13.653 170.667-13.653 133.12 0 238.933 20.48 238.933 47.787 0 0 0 64.853 0 64.853 0 3.413-20.48 6.827-27.307 13.653zM979.627 372.907c-27.307-13.653-112.64-27.307-180.907-30.72 0-23.893 0-58.027 0-95.573 102.4 3.413 204.8 23.893 204.8 44.373 0 0 0 64.853 0 64.853 0 6.827-17.067 10.24-23.893 17.067zM976.213 495.787c-30.72-17.067-109.227-30.72-218.453-30.72-68.267 0-129.707 3.413-163.84 13.653 0-13.653 0-30.72 0-47.787 102.4-3.413 204.8-23.893 204.8-47.787 0 0 0-3.413 0-6.827 102.4 3.413 204.8 23.893 204.8 44.373 0 0 0 64.853 0 64.853s-20.48 3.413-27.307 10.24zM266.24 308.053c-109.227 0-201.387 10.24-228.693 30.72-6.827-3.413-10.24-6.827-10.24-13.653v-68.267c6.827-27.307 112.64-40.96 238.933-40.96v92.16zM273.067 376.32c3.413 27.307 116.053 47.787 252.587 47.787 0 13.653 0 20.48 0 23.893s-10.24 10.24-20.48 13.653c-30.72-17.067-122.88-30.72-232.107-30.72s-194.56 10.24-225.28 30.72c-6.827-3.413 0-6.827 0-13.653v-68.267c0-27.307 105.813-40.96 232.107-40.96l-6.827 37.547zM764.587 362.667c0 23.893-98.987 40.96-221.867 40.96s-221.867-17.067-221.867-40.96v-64.853c0-23.893 105.813-37.547 225.28-37.547 122.88 0 218.453 20.48 218.453 40.96 0 3.413 0 61.44 0 61.44zM740.693 260.267c-27.307-17.067-116.053-30.72-215.040-30.72-102.4 0-177.493 10.24-204.8 27.307-6.827-3.413 0-6.827 0-10.24v-64.853c0-23.893 105.813-37.547 225.28-37.547 122.88 0 218.453 20.48 218.453 40.96 0 0 0 58.027 0 61.44 0 6.827-17.067 10.24-23.893 13.653z" />
<glyph unicode="&#xe61a;" d="M863.573 591.36v191.147h-703.147v-194.56h75.093v-44.373h-75.093v-194.56h75.093v-44.373h-75.093v-194.56h706.56v194.56h-75.093v44.373h75.093v194.56h-75.093v44.373h71.68zM744.107 304.64h-460.8v44.373h460.8v-44.373zM744.107 543.573h-460.8v44.373h460.8v-44.373z" />
<glyph unicode="&#xe61b;" d="M798.72 830.293h-573.44c-58.027 0-102.4-44.373-102.4-102.4v-559.787c0-58.027 44.373-102.4 102.4-102.4h573.44c58.027 0 102.4 44.373 102.4 102.4v559.787c0 54.613-47.787 102.4-102.4 102.4zM337.92 519.68v-327.68c0-6.827-6.827-13.653-13.653-13.653s-13.653 6.827-13.653 13.653v327.68c-37.547 6.827-64.853 37.547-64.853 78.507s27.307 71.68 64.853 75.093v30.72c0 6.827 6.827 13.653 13.653 13.653s13.653-6.827 13.653-13.653v-27.307c37.547-6.827 64.853-37.547 64.853-78.507s-27.307-71.68-64.853-78.507zM525.653 243.2v-47.787c0-6.827-6.827-13.653-13.653-13.653s-13.653 6.827-13.653 13.653v47.787c-37.547 6.827-64.853 37.547-64.853 78.507s27.307 71.68 64.853 78.507v307.2c0 6.827 6.827 13.653 13.653 13.653s13.653-6.827 13.653-13.653v-307.2c37.547-6.827 64.853-37.547 64.853-78.507s-27.307-75.093-64.853-78.507zM713.387 434.347v-242.347c0-6.827-6.827-13.653-13.653-13.653s-13.653 6.827-13.653 13.653v242.347c-37.547 6.827-64.853 37.547-64.853 78.507s27.307 71.68 64.853 78.507v112.64c0 6.827 6.827 13.653 13.653 13.653s13.653-6.827 13.653-13.653v-112.64c37.547-6.827 64.853-37.547 64.853-78.507s-27.307-71.68-64.853-78.507z" />
<glyph unicode="&#xe61c;" d="M174.080 683.52h92.16v-85.333h-92.16v85.333zM344.747 683.52h505.173v-85.333h-505.173v85.333zM215.040 553.813h92.16v-85.333h-92.16v85.333zM382.293 553.813h426.667v-85.333h-426.667v85.333zM215.040 427.52h92.16v-85.333h-92.16v85.333zM382.293 427.52h426.667v-85.333h-426.667v85.333zM215.040 297.813h92.16v-85.333h-92.16v85.333zM382.293 297.813h426.667v-85.333h-426.667v85.333z" />
<glyph unicode="&#xe61d;" d="M901.12 683.52l-150.187 150.187h-191.147l-436.907-433.493 337.92-337.92 436.907 436.907 3.413 184.32zM682.667 615.253c-27.307 27.307-27.307 68.267 0 95.573s68.267 27.307 95.573 0c27.307-27.307 27.307-68.267 0-95.573s-71.68-27.307-95.573 0z" />
<glyph unicode="&#xe61e;" d="M754.347 591.36l-98.987 98.987-143.36-143.36-143.36 143.36-98.987-98.987 143.36-143.36-143.36-143.36 98.987-98.987 143.36 143.36 143.36-143.36 98.987 98.987-143.36 143.36z" />
<glyph unicode="&#xe61f;" d="M354.987 512.853l-259.413 262.827c-10.24 10.24-10.24 23.893 0 30.72 10.24 10.24 23.893 10.24 30.72 0l262.827-262.827 20.48 20.48-262.827 262.827c-6.827 10.24-6.827 23.893 0 30.72 10.24 10.24 23.893 10.24 34.133 0l262.827-262.827 30.72 30.72-252.587 252.587c-34.133 30.72-88.747 23.893-126.293-13.653-40.96-37.547-44.373-95.573-13.653-126.293l252.587-252.587 20.48 27.307zM962.56 45.227l-75.093 105.813c-3.413 3.413-10.24 0-20.48-6.827 0 0 0 3.413-3.413 3.413l-221.867 221.867-47.787-58.027 221.867-221.867c0 0 3.413 0 3.413-3.413-6.827-10.24-10.24-17.067-6.827-20.48l109.227-71.68c3.413-3.413 17.067 3.413 30.72 17.067 6.827 17.067 13.653 27.307 10.24 34.133zM706.56 471.893c58.027-6.827 122.88 10.24 167.253 54.613 64.853 64.853 75.093 163.84 30.72 242.347l-143.36-143.36-71.68 71.68 143.36 143.36c-75.093 44.373-177.493 34.133-242.347-30.72-44.373-44.373-64.853-109.227-54.613-167.253-10.24-6.827-17.067-10.24-23.893-20.48l-385.707-382.293c-47.787-47.787-47.787-126.293 0-177.493 47.787-47.787 126.293-47.787 177.493 0l382.293 385.707c6.827 6.827 13.653 13.653 20.48 23.893zM256 137.387c-17.067-17.067-40.96-17.067-58.027 0s-17.067 40.96 0 58.027c17.067 17.067 40.96 17.067 58.027 0s17.067-44.373 0-58.027z" />
<glyph unicode="&#xe620;" d="M706.56 960l-389.12-522.24 389.12-501.76z" />
<glyph unicode="&#xe621;" d="M317.44 960l389.12-522.24-389.12-501.76z" />
<glyph unicode="&#xe622;" d="M914.773 697.173c-30.72-13.653-61.44-20.48-95.573-23.893 34.133 20.48 61.44 51.2 71.68 92.16-30.72-20.48-68.267-34.133-105.813-40.96-30.72 30.72-71.68 51.2-119.467 51.2-92.16 0-163.84-75.093-163.84-163.84 0-13.653 0-23.893 3.413-37.547-136.533 6.827-259.413 71.68-341.333 174.080-13.653-27.307-20.48-54.613-20.48-85.333 0-58.027 30.72-109.227 75.093-136.533-27.307 0-51.2 6.827-75.093 20.48 0 0 0 0 0-3.413 0-78.507 58.027-146.773 133.12-163.84-13.653-3.413-27.307-6.827-44.373-6.827-10.24 0-20.48 0-30.72 3.413 20.48-64.853 81.92-112.64 153.6-116.053-58.027-44.373-126.293-71.68-204.8-71.68-13.653 0-27.307 0-40.96 3.413 71.68-47.787 160.427-75.093 252.587-75.093 303.787 0 471.040 252.587 471.040 471.040 0 6.827 0 13.653 0 20.48 30.72 27.307 61.44 58.027 81.92 88.747z" />
<glyph unicode="&#xe623;" d="M133.12 536.747l13.653-78.507c3.413-20.48 6.827-40.96 10.24-61.44v0c3.413 20.48 10.24 40.96 13.653 61.44l20.48 78.507h47.787l20.48-75.093c6.827-20.48 10.24-40.96 13.653-64.853v0c3.413 20.48 6.827 40.96 10.24 64.853l17.067 75.093h58.027l-58.027-187.733h-58.027l-17.067 64.853c-3.413 17.067-6.827 34.133-13.653 58.027v0c-3.413-23.893-6.827-40.96-10.24-58.027l-20.48-64.853h-54.613l-54.613 187.733h61.44zM430.080 536.747l13.653-78.507c3.413-20.48 6.827-40.96 10.24-61.44v0c3.413 20.48 10.24 40.96 13.653 61.44l20.48 78.507h44.373l20.48-75.093c6.827-20.48 10.24-40.96 13.653-64.853v0c3.413 20.48 6.827 40.96 10.24 64.853l17.067 75.093h58.027l-58.027-187.733h-54.613l-17.067 64.853c-3.413 17.067-6.827 34.133-13.653 58.027v0c-3.413-23.893-6.827-40.96-10.24-58.027l-20.48-64.853h-54.613l-54.613 187.733h61.44zM727.040 536.747l13.653-78.507c3.413-20.48 6.827-40.96 10.24-61.44v0c3.413 20.48 10.24 40.96 13.653 61.44l20.48 78.507h44.373l17.067-75.093c6.827-20.48 10.24-40.96 13.653-64.853v0c3.413 20.48 6.827 40.96 10.24 64.853l17.067 75.093h58.027l-58.027-187.733h-54.613l-10.24 64.853c-3.413 17.067-6.827 34.133-13.653 58.027v0c-3.413-23.893-6.827-40.96-10.24-58.027l-20.48-64.853h-54.613l-54.613 187.733h58.027zM256 584.533c30.72 54.613 75.093 98.987 129.707 126.293-20.48-23.893-34.133-54.613-44.373-88.747-27.307-10.24-54.613-20.48-75.093-34.133h119.467c34.133 6.827 68.267 13.653 105.813 13.653v-17.067h44.373v13.653c37.547 0 75.093-6.827 105.813-13.653h119.467c-23.893 13.653-47.787 23.893-75.093 34.133-10.24 34.133-27.307 64.853-44.373 92.16 54.613-27.307 98.987-71.68 129.707-126.293h68.267c-54.613 129.707-180.907 218.453-327.68 218.453s-273.067-88.747-327.68-215.040h71.68zM535.893 741.547c6.827 0 10.24 0 17.067-3.413 30.72-17.067 61.44-54.613 81.92-102.4-30.72 6.827-64.853 10.24-98.987 10.24v95.573zM474.453 738.133c6.827 0 10.24 0 17.067 3.413v-95.573c-34.133 0-68.267-3.413-98.987-10.24 20.48 47.787 51.2 85.333 81.92 102.4zM771.413 308.053c-30.72-54.613-71.68-95.573-126.293-122.88 17.067 27.307 30.72 58.027 44.373 92.16 27.307 10.24 51.2 20.48 71.68 30.72h-126.293c-30.72-6.827-61.44-10.24-95.573-13.653v13.653h-44.373v-13.653c-34.133 0-64.853 6.827-95.573 13.653h-129.707c20.48-13.653 44.373-23.893 71.68-30.72 10.24-34.133 27.307-64.853 44.373-92.16-54.613 27.307-98.987 71.68-126.293 122.88h-68.267c54.613-126.293 180.907-215.040 324.267-215.040 146.773 0 269.653 88.747 324.267 215.040h-68.267zM491.52 154.453c-6.827 0-10.24 0-17.067 3.413-30.72 17.067-61.44 54.613-81.92 105.813 30.72-6.827 64.853-10.24 98.987-10.24v-98.987zM552.96 157.867c-6.827 0-10.24 0-17.067-3.413v95.573c34.133 0 68.267 3.413 98.987 10.24-20.48-47.787-51.2-85.333-81.92-102.4z" />
<glyph unicode="&#xe624;" d="M157.013 106.667c286.72-17.067 518.827-13.653 713.387 0 71.68 6.827 126.293 61.44 133.12 133.12 13.653 139.947 13.653 279.893 0 416.427-6.827 71.68-58.027 126.293-133.12 133.12-238.933 13.653-474.453 13.653-713.387 0-75.093-3.413-126.293-61.44-133.12-133.12-13.653-139.947-13.653-276.48 0-416.427 6.827-71.68 58.027-129.707 133.12-133.12zM409.6 591.36l266.24-139.947-266.24-139.947v279.893z" />
</font>
</defs>
</svg>
